# xmcd CD database file
#
# Track frame offsets:
#	187
#	53542
#	79632
#	115342
#	147730
#	169295
#	216817
#	263915
#	280625
#
# Disc length: 4342 seconds
#
# Revision: 0
# Processed by: cddbd v1.5.1PL2 Copyright (c) Steve Scherf et al.
# Submitted via: CDex 1.60beta1
#
DISCID=8110f409
DTITLE=Dizzy Gillespie - Dizzy Gillespie At Newport
DYEAR=1957
DGENRE=Jazz
TTITLE0=Dizzy's Blues
TTITLE1=School Days
TTITLE2=Doodlin'
TTITLE3=Manteca Theme
TTITLE4=I Remember Clifford
TTITLE5=Cool Breeze
TTITLE6=Zodiac Suite
TTITLE7=Carioca
TTITLE8=A Night in Tunisia
EXTD=YEAR: 1957
EXTT0=
EXTT1=
EXTT2=
EXTT3=
EXTT4=
EXTT5=
EXTT6=
EXTT7=
EXTT8=
PLAYORDER=
